<svg width="12" height="12" viewBox="0 0 12 12" fill="none" xmlns="http://www.w3.org/2000/svg">
<path d="M10.7605 11.4935C9.50846 11.4935 8.27055 11.1927 7.0468 10.5909C5.82305 9.98918 4.72665 9.20459 3.75762 8.23714C2.78859 7.26969 2.00326 6.17093 1.40165 4.94085C0.800032 3.71079 0.499222 2.47291 0.499222 1.22724C0.499222 1.01014 0.568177 0.832056 0.706086 0.692989C0.843996 0.553913 1.02169 0.484375 1.23918 0.484375H3.47422C3.64482 0.484375 3.79544 0.539962 3.92609 0.651135C4.05673 0.762309 4.13987 0.909411 4.17549 1.09244L4.59144 3.02663C4.61553 3.19529 4.60975 3.34497 4.57411 3.47566C4.53847 3.60636 4.47936 3.70989 4.39678 3.78625L2.8871 5.29023C3.39307 6.13226 3.97178 6.87535 4.62321 7.51951C5.27465 8.16367 5.9872 8.70349 6.76087 9.13896L8.249 7.63972C8.35509 7.5239 8.47336 7.44306 8.60379 7.3972C8.73422 7.35134 8.8701 7.34647 9.01146 7.38261L10.8816 7.8068C11.0634 7.85124 11.2121 7.94261 11.3276 8.08091C11.443 8.21921 11.5008 8.37872 11.5008 8.55943V10.7501C11.5008 10.9699 11.4318 11.1488 11.2939 11.2867C11.156 11.4246 10.9782 11.4935 10.7605 11.4935ZM2.32721 4.2678L3.46409 3.13727L3.13201 1.61174H1.65575C1.6511 1.97936 1.70105 2.37467 1.80561 2.79769C1.91016 3.22069 2.08403 3.71073 2.32721 4.2678ZM10.3699 10.3516V10.3554V8.84602L8.92015 8.52867L7.81943 9.70231C8.19669 9.88471 8.60788 10.0312 9.05299 10.1419C9.49809 10.2525 9.93707 10.3224 10.3699 10.3516Z" fill="white"/>
</svg>
