<svg width="16" height="16" viewBox="0 0 16 16" fill="none" xmlns="http://www.w3.org/2000/svg">
<path d="M14.8007 15.8484C13.0121 15.8484 11.2436 15.4186 9.49541 14.559C7.74719 13.6994 6.18091 12.5785 4.79658 11.1965C3.41224 9.8144 2.29036 8.24474 1.43091 6.48749C0.571453 4.73025 0.141724 2.96186 0.141724 1.18232C0.141724 0.872184 0.240231 0.617781 0.437244 0.419114C0.634258 0.220434 0.888113 0.121094 1.19881 0.121094H4.39172C4.63543 0.121094 4.85061 0.200503 5.03724 0.359323C5.22388 0.518142 5.34265 0.728288 5.39354 0.98976L5.98774 3.75289C6.02216 3.99383 6.01391 4.20766 5.96299 4.39436C5.91208 4.58107 5.82763 4.72897 5.70966 4.83805L3.55297 6.98659C4.27579 8.1895 5.10252 9.25106 6.03314 10.1713C6.96377 11.0915 7.9817 11.8627 9.08693 12.4848L11.2128 10.343C11.3644 10.1776 11.5333 10.0621 11.7197 9.99655C11.906 9.93104 12.1001 9.92409 12.3021 9.97572L14.9737 10.5817C15.2334 10.6452 15.4458 10.7757 15.6108 10.9733C15.7757 11.1709 15.8582 11.3987 15.8582 11.6569V14.7864C15.8582 15.1004 15.7597 15.3559 15.5627 15.5529C15.3657 15.7499 15.1117 15.8484 14.8007 15.8484ZM2.75314 5.52599L4.37724 3.91095L3.90285 1.73161H1.79391C1.78726 2.25678 1.85862 2.82152 2.00799 3.42582C2.15736 4.03011 2.40574 4.73017 2.75314 5.52599ZM14.2427 14.2171V14.2226V12.0663L12.1716 11.6129L10.5992 13.2896C11.1381 13.5501 11.7255 13.7595 12.3614 13.9175C12.9973 14.0756 13.6244 14.1754 14.2427 14.2171Z" fill="black"/>
</svg>
