<svg width="13" height="13" viewBox="0 0 13 13" fill="none" xmlns="http://www.w3.org/2000/svg">
<path d="M8.95621 7.22636C8.88694 7.22636 8.81836 7.21349 8.75047 7.18774C8.68259 7.16199 8.62386 7.11906 8.57428 7.05896L5.94104 4.42572C5.88094 4.37613 5.83801 4.31643 5.81225 4.2466C5.78651 4.17677 5.77364 4.107 5.77364 4.03729C5.77364 3.96521 5.78652 3.89602 5.81228 3.82972C5.83806 3.76344 5.88097 3.69908 5.94104 3.63664L8.57428 1.00687C8.62386 0.954167 8.68334 0.912512 8.75272 0.881907C8.8221 0.851301 8.89138 0.835999 8.96056 0.835999C9.03213 0.835999 9.1014 0.851355 9.16837 0.882067C9.23534 0.91278 9.30033 0.954381 9.36335 1.00687L11.9931 3.63664C12.0456 3.69966 12.0872 3.7653 12.1179 3.83356C12.1486 3.90183 12.164 3.97175 12.164 4.04333C12.164 4.11251 12.1487 4.18114 12.1181 4.24923C12.0875 4.3173 12.0458 4.37613 11.9931 4.42572L9.36335 7.05896C9.30027 7.11902 9.23456 7.16194 9.16622 7.18771C9.09788 7.21348 9.02788 7.22636 8.95621 7.22636ZM0.80104 6.31617C0.638339 6.31617 0.503769 6.26271 0.39733 6.15581C0.290891 6.0489 0.237676 5.91689 0.237686 5.75978V2.04325C0.237686 1.88613 0.290906 1.75412 0.397344 1.64721C0.503783 1.54032 0.638353 1.48687 0.801055 1.48687H4.5106C4.67098 1.48687 4.80439 1.54032 4.91083 1.64721C5.01727 1.75412 5.07049 1.88613 5.07049 2.04325V5.75978C5.07049 5.91689 5.01727 6.0489 4.91083 6.15581C4.80439 6.26271 4.67098 6.31617 4.5106 6.31617H0.80104ZM7.25131 12.7623C7.09419 12.7623 6.96218 12.7091 6.85528 12.6027C6.74838 12.4962 6.69492 12.3617 6.69492 12.199V8.50049C6.69492 8.34012 6.74838 8.20672 6.85528 8.10028C6.96218 7.99384 7.09419 7.94062 7.25131 7.94062H10.9567C11.1139 7.94062 11.2459 7.99384 11.3528 8.10028C11.4597 8.20672 11.5131 8.34012 11.5131 8.50049V12.199C11.5131 12.3617 11.4597 12.4962 11.3528 12.6027C11.2459 12.7091 11.1139 12.7623 10.9567 12.7623H7.25131ZM0.80104 12.7623C0.638339 12.7623 0.503769 12.7091 0.39733 12.6027C0.290891 12.4962 0.237676 12.3617 0.237686 12.199V8.4894C0.237686 8.32903 0.290906 8.19562 0.397344 8.08918C0.503783 7.98274 0.638353 7.92952 0.801055 7.92952H4.5106C4.67098 7.92952 4.80439 7.98274 4.91083 8.08918C5.01727 8.19562 5.07049 8.32903 5.07049 8.4894V12.199C5.07049 12.3617 5.01727 12.4962 4.91083 12.6027C4.80439 12.7091 4.67098 12.7623 4.5106 12.7623H0.80104ZM1.36852 5.1888H3.93962V2.61422H1.36852V5.1888ZM9.00354 5.91005L10.8331 4.08395L9.00354 2.2509L7.17744 4.08395L9.00354 5.91005ZM7.82229 11.6315H10.3858V9.07147H7.82229V11.6315ZM1.36852 11.6315H3.93962V9.06037H1.36852V11.6315Z" fill="white"/>
</svg>
