<svg width="14" height="10" viewBox="0 0 14 10" fill="none" xmlns="http://www.w3.org/2000/svg">
<path d="M3.30018 9.88827C2.80588 9.88827 2.38009 9.71438 2.0228 9.3666C1.66551 9.01881 1.48453 8.59806 1.47987 8.10435H1.39237C1.0818 8.07518 0.833643 7.95822 0.647909 7.75347C0.462186 7.54872 0.369324 7.2899 0.369324 6.97698V1.2245C0.369324 0.92884 0.48249 0.66703 0.708824 0.439073C0.935147 0.211116 1.19776 0.0971375 1.49667 0.0971375H8.89487C9.20313 0.0971375 9.45587 0.21378 9.65312 0.447065C9.85036 0.680349 9.9734 0.939495 10.0222 1.2245V2.5649H11.3358C11.4295 2.5649 11.5167 2.58308 11.5972 2.61943C11.6777 2.65578 11.7417 2.71031 11.7893 2.78301L13.5251 5.06816C13.5542 5.11572 13.5791 5.16838 13.5997 5.22614C13.6203 5.2839 13.6307 5.34737 13.6307 5.41654V7.54509C13.6307 7.70505 13.5774 7.83825 13.471 7.94469C13.3646 8.05113 13.2312 8.10435 13.0708 8.10435H12.4903C12.4856 8.60292 12.305 9.02489 11.9483 9.37024C11.5917 9.71559 11.1663 9.88827 10.6723 9.88827C10.1733 9.88827 9.74828 9.71438 9.39728 9.3666C9.04628 9.01881 8.86845 8.59806 8.8638 8.10435H5.11398C5.10934 8.60292 4.92892 9.02489 4.57272 9.37024C4.21654 9.71559 3.79236 9.88827 3.30018 9.88827ZM3.29842 8.83763C3.51066 8.83763 3.69237 8.76131 3.84356 8.60867C3.99474 8.45604 4.07033 8.27407 4.07033 8.06276C4.07033 7.85145 3.99468 7.66938 3.84338 7.51657C3.69209 7.36376 3.51012 7.28736 3.29747 7.28736C3.0848 7.28736 2.90265 7.36368 2.751 7.51632C2.59935 7.66895 2.52353 7.85092 2.52353 8.06223C2.52353 8.27355 2.59937 8.45561 2.75106 8.60842C2.90274 8.76123 3.08519 8.83763 3.29842 8.83763ZM1.49667 1.2245V6.97698H1.85487C2.03688 6.73858 2.2494 6.55375 2.49244 6.4225C2.73548 6.29125 2.99936 6.22562 3.28407 6.22562C3.56877 6.22562 3.83447 6.2948 4.08118 6.43316C4.32787 6.57151 4.54268 6.75279 4.72561 6.97698H8.89487V1.2245H1.49667ZM10.6712 8.83763C10.8835 8.83763 11.0652 8.76131 11.2164 8.60867C11.3676 8.45604 11.4432 8.27407 11.4432 8.06276C11.4432 7.85145 11.3675 7.66938 11.2162 7.51657C11.0649 7.36376 10.8829 7.28736 10.6703 7.28736C10.4576 7.28736 10.2755 7.36368 10.1238 7.51632C9.97219 7.66895 9.89637 7.85092 9.89637 8.06223C9.89637 8.27355 9.97221 8.45561 10.1239 8.60842C10.2756 8.76123 10.458 8.83763 10.6712 8.83763ZM10.0222 5.75009H12.6101L11.0621 3.69574H10.0222V5.75009Z" fill="white"/>
</svg>
