<svg width="17" height="19" viewBox="0 0 17 19" fill="none" xmlns="http://www.w3.org/2000/svg">
<path d="M8.49671 9.09083C7.27275 9.09083 6.27852 8.6922 5.51403 7.89493C4.74953 7.09766 4.36729 6.06387 4.36729 4.79357C4.36729 3.52324 4.74921 2.49007 5.51307 1.69404C6.27692 0.898013 7.27083 0.5 8.49479 0.5C9.71875 0.5 10.7144 0.897777 11.4817 1.69333C12.2491 2.4889 12.6327 3.52335 12.6327 4.79669C12.6327 6.06491 12.2494 7.09766 11.4827 7.89493C10.716 8.6922 9.72067 9.09083 8.49671 9.09083ZM15.043 18.5H1.951C1.40527 18.5 0.943666 18.3041 0.566189 17.9122C0.18873 17.5203 0 17.0398 0 16.4707V15.6051C0 14.8691 0.174546 14.2372 0.523638 13.7095C0.872714 13.1818 1.32399 12.7809 1.87748 12.5069C3.03441 11.9468 4.15363 11.5323 5.23515 11.2631C6.31665 10.9939 7.4026 10.8593 8.49302 10.8593C9.59116 10.8593 10.6762 10.9993 11.748 11.2794C12.8199 11.5594 13.9336 11.9702 15.0892 12.512C15.6657 12.7827 16.1283 13.1812 16.477 13.7074C16.8257 14.2336 17 14.8661 17 15.6051V16.4707C17 17.0398 16.8107 17.5203 16.432 17.9122C16.0534 18.3041 15.5904 18.5 15.043 18.5ZM1.951 16.4707H15.043V15.6199C15.043 15.3425 14.9702 15.0821 14.8246 14.8384C14.679 14.5948 14.4977 14.4223 14.2809 14.321C13.2074 13.7869 12.218 13.4156 11.3127 13.2073C10.4074 12.999 9.46686 12.8949 8.49098 12.8949C7.52313 12.8949 6.58136 13.0001 5.66566 13.2105C4.74995 13.4209 3.76663 13.7907 2.71569 14.32C2.48617 14.4275 2.30135 14.5999 2.16121 14.8374C2.02107 15.0749 1.951 15.3357 1.951 15.6199V16.4707ZM8.49575 7.06155C9.11983 7.06155 9.63918 6.84625 10.0538 6.41565C10.4684 5.98507 10.6757 5.44506 10.6757 4.79564C10.6757 4.1445 10.4688 3.60295 10.055 3.17098C9.64123 2.73902 9.12231 2.52304 8.49822 2.52304C7.87414 2.52304 7.35479 2.73911 6.94018 3.17127C6.52558 3.60343 6.31829 4.14385 6.31829 4.79254C6.31829 5.44295 6.52518 5.98371 6.93896 6.41483C7.35273 6.84598 7.87166 7.06155 8.49575 7.06155Z" fill="#47BD97"/>
</svg>
