<svg width="14" height="10" viewBox="0 0 14 10" fill="none" xmlns="http://www.w3.org/2000/svg">
<path d="M8.16667 3.26872C8.16667 3.22218 8.18438 3.17364 8.21979 3.12309C8.25522 3.07255 8.29585 3.03008 8.34167 2.99566C8.6313 2.88813 8.93113 2.8052 9.24115 2.74687C9.55117 2.68853 9.87318 2.65937 10.2072 2.65937C10.4159 2.65937 10.6223 2.67157 10.8263 2.69599C11.0304 2.7204 11.2325 2.757 11.4327 2.80578C11.4938 2.82299 11.548 2.85858 11.5955 2.91253C11.6429 2.96649 11.6667 3.02415 11.6667 3.08551C11.6667 3.19684 11.6288 3.28431 11.5531 3.34793C11.4774 3.41157 11.3926 3.42394 11.2986 3.38505C11.1255 3.34616 10.9486 3.31272 10.7678 3.28472C10.5869 3.25671 10.4005 3.2427 10.2083 3.2427C9.92306 3.2427 9.64874 3.27129 9.38537 3.32847C9.12199 3.38563 8.86457 3.46167 8.61309 3.55656C8.48568 3.6075 8.37943 3.60425 8.29433 3.54682C8.20922 3.48939 8.16667 3.39669 8.16667 3.26872ZM8.16667 6.48119C8.16667 6.42907 8.18438 6.37625 8.21979 6.32273C8.25522 6.2692 8.29585 6.22476 8.34167 6.18941C8.6313 6.08188 8.93113 6.00138 9.24115 5.94791C9.55117 5.89444 9.87318 5.8677 10.2072 5.8677C10.4159 5.8677 10.6223 5.87991 10.8263 5.90432C11.0304 5.92873 11.2325 5.96533 11.4327 6.01412C11.4938 6.03133 11.548 6.06691 11.5955 6.12087C11.6429 6.17483 11.6667 6.23248 11.6667 6.29384C11.6667 6.40517 11.6288 6.49265 11.5531 6.55627C11.4774 6.6199 11.3926 6.63227 11.2986 6.59338C11.1255 6.55449 10.9486 6.52105 10.7678 6.49305C10.5869 6.46504 10.4005 6.45104 10.2083 6.45104C9.92306 6.45104 9.64874 6.47719 9.38537 6.52951C9.12199 6.58181 8.86457 6.65542 8.61309 6.75031C8.48568 6.80125 8.37943 6.80252 8.29433 6.75412C8.20922 6.70572 8.16667 6.61475 8.16667 6.48119ZM8.16667 4.87288C8.16667 4.82634 8.18438 4.7778 8.21979 4.72726C8.25522 4.67672 8.29585 4.63424 8.34167 4.59983C8.6313 4.4923 8.93113 4.40937 9.24115 4.35104C9.55117 4.2927 9.87318 4.26353 10.2072 4.26353C10.4159 4.26353 10.6223 4.27574 10.8263 4.30015C11.0304 4.32457 11.2325 4.36117 11.4327 4.40995C11.4938 4.42716 11.548 4.46274 11.5955 4.5167C11.6429 4.57066 11.6667 4.62832 11.6667 4.68967C11.6667 4.801 11.6288 4.88848 11.5531 4.9521C11.4774 5.01573 11.3926 5.0281 11.2986 4.98922C11.1255 4.95033 10.9486 4.91688 10.7678 4.88888C10.5869 4.86087 10.4005 4.84687 10.2083 4.84687C9.92306 4.84687 9.64874 4.87546 9.38537 4.93263C9.12199 4.9898 8.86457 5.06583 8.61309 5.16073C8.48568 5.21167 8.37943 5.20842 8.29433 5.15099C8.20922 5.09356 8.16667 5.00086 8.16667 4.87288ZM3.59447 7.77463C4.11606 7.77463 4.62377 7.83724 5.11761 7.96247C5.61145 8.0877 6.09541 8.26814 6.56947 8.5038V2.23209C6.13429 1.95031 5.66062 1.72921 5.14844 1.5688C4.63626 1.40838 4.1185 1.32817 3.59518 1.32817C3.22526 1.32817 2.85976 1.37435 2.49866 1.46671C2.13757 1.55907 1.77716 1.67377 1.41744 1.81081V8.17948C1.7239 8.04569 2.07035 7.94477 2.45681 7.87672C2.84327 7.80866 3.22249 7.77463 3.59447 7.77463ZM7.49646 8.5038C7.98275 8.26814 8.45676 8.0877 8.9185 7.96247C9.38023 7.83724 9.87491 7.77463 10.4025 7.77463C10.774 7.77463 11.1584 7.8038 11.5559 7.86213C11.9533 7.92047 12.2955 8.00194 12.5826 8.10656V1.81553C12.252 1.64152 11.8998 1.51679 11.5258 1.44134C11.1519 1.36589 10.7774 1.32817 10.4025 1.32817C9.87491 1.32817 9.36804 1.40838 8.88191 1.5688C8.39577 1.72921 7.93396 1.95031 7.49646 2.23209V8.5038ZM7.04047 9.82486C6.98002 9.82486 6.91972 9.81717 6.85959 9.8018C6.79946 9.78643 6.74228 9.76263 6.68805 9.73039C6.22603 9.43132 5.73227 9.20031 5.20677 9.03736C4.68128 8.87441 4.14356 8.79293 3.59362 8.79293C3.23206 8.79293 2.8774 8.8409 2.52964 8.93685C2.18187 9.0328 1.83713 9.14429 1.49543 9.27132C1.25133 9.39222 1.00944 9.38162 0.769766 9.23954C0.530075 9.09746 0.410229 8.87927 0.410229 8.58496V1.68561C0.410229 1.52044 0.448909 1.36686 0.526268 1.22488C0.603618 1.08289 0.719653 0.972747 0.874373 0.894464C1.30354 0.696111 1.74425 0.55036 2.19651 0.457212C2.64876 0.364054 3.11255 0.317474 3.58788 0.317474C4.20086 0.317474 4.80126 0.402544 5.38908 0.572683C5.97692 0.742822 6.52361 0.996654 7.02917 1.33418C7.53472 0.998978 8.07176 0.745728 8.64029 0.574433C9.20883 0.403127 9.79963 0.317474 10.4127 0.317474C10.8858 0.317474 11.3475 0.367354 11.7976 0.467114C12.2478 0.566874 12.6856 0.709324 13.111 0.894464C13.2658 0.972747 13.3842 1.08289 13.4664 1.22488C13.5487 1.36686 13.5898 1.5224 13.5898 1.69149V8.62332C13.5898 8.91553 13.4654 9.1341 13.2167 9.27902C12.9679 9.42395 12.7257 9.42138 12.49 9.27132C12.158 9.13457 11.8191 9.02065 11.4732 8.92956C11.1273 8.83847 10.7738 8.79293 10.4128 8.79293C9.8724 8.79293 9.34502 8.87499 8.83069 9.03911C8.31635 9.20322 7.83421 9.43365 7.38424 9.73039C7.33326 9.76263 7.27833 9.78643 7.21945 9.8018C7.16058 9.81717 7.10092 9.82486 7.04047 9.82486Z" fill="white"/>
</svg>
